<svg width="25" height="23" viewBox="0 0 25 23" fill="none" xmlns="http://www.w3.org/2000/svg">
<path d="M5.46219 23V7.48194H0.304312V23H5.46219ZM2.88392 5.36194C4.68256 5.36194 5.80212 4.17033 5.80212 2.68122C5.76861 1.15853 4.68263 0 2.91805 0C1.15375 0 0 1.15855 0 2.68122C0 4.1704 1.11929 5.36194 2.85024 5.36194H2.88375H2.88392ZM8.31705 23H13.4749V14.334C13.4749 13.8702 13.5084 13.4068 13.6446 13.0753C14.0175 12.1487 14.8662 11.1889 16.291 11.1889C18.1574 11.1889 18.9041 12.612 18.9041 14.6981V22.9999H24.0617V14.102C24.0617 9.33544 21.517 7.11762 18.1235 7.11762C15.341 7.11762 14.1193 8.67292 13.4406 9.73223H13.475V7.48162H8.31717C8.38486 8.93775 8.31717 22.9997 8.31717 22.9997L8.31705 23Z" fill="#FDFDFD"/>
</svg>
