<svg width="20" height="20" viewBox="0 0 20 20" fill="none" xmlns="http://www.w3.org/2000/svg">
<g clip-path="url(#clip0)">
<path d="M10.0842 4.14389C10.0842 4.14389 10.0479 4.14174 9.98305 4.14253C9.95051 4.1428 9.91055 4.14331 9.86485 4.14592C9.81449 4.15237 9.75692 4.16272 9.69176 4.17639C9.62383 4.18963 9.55828 4.20616 9.48485 4.22671C9.41055 4.24631 9.33324 4.27217 9.25199 4.30346C9.08742 4.36421 8.91125 4.44975 8.72723 4.55967C8.68008 4.5862 8.63676 4.61772 8.58988 4.64819C8.54367 4.67917 8.49621 4.71108 8.45074 4.74612C8.35961 4.81612 8.26461 4.89006 8.17535 4.9744C8.07956 5.06089 7.98869 5.15267 7.90317 5.24932C7.88414 5.23362 7.86531 5.21772 7.84598 5.20233C7.81308 5.17692 7.77977 5.15204 7.74606 5.12772C7.74727 5.09323 7.74844 5.05874 7.74945 5.02389C7.74828 4.9776 7.7511 4.93139 7.75207 4.88495C7.75348 4.8385 7.75403 4.79186 7.75778 4.74546C7.76113 4.69905 7.76356 4.65237 7.76438 4.60526L7.77344 4.46487C7.77555 4.41788 7.7811 4.37151 7.78508 4.32487C7.78867 4.27807 7.79008 4.23077 7.79539 4.1844L7.82356 3.90639C7.84313 3.72213 7.86699 3.54131 7.89133 3.36663C7.90426 3.27952 7.91582 3.19346 7.92985 3.11034C7.94211 3.02639 7.95535 2.94506 7.9691 2.86647L7.98785 2.74971C7.99399 2.71143 8.00235 2.6751 8.00789 2.63803C8.01992 2.5644 8.03258 2.49444 8.04485 2.42815C8.05645 2.36178 8.06871 2.2985 8.07793 2.24046C8.08797 2.18342 8.09797 2.13069 8.10539 2.08135C8.10957 2.05671 8.11262 2.03381 8.11731 2.01116L8.12981 1.94581L8.14926 1.84253C8.15492 1.81475 8.15754 1.79225 8.15996 1.77753L8.16336 1.75503L8.16821 1.72296C8.17593 1.67106 8.16829 1.61804 8.14624 1.57043C8.12419 1.52282 8.08869 1.4827 8.04412 1.45502C7.99955 1.42734 7.94785 1.41331 7.8954 1.41466C7.84295 1.41601 7.79204 1.43267 7.74895 1.4626L7.67938 1.51092L7.59695 1.56979L7.54481 1.60721C7.52656 1.62116 7.5068 1.63803 7.48602 1.65487L7.34742 1.76948C7.29676 1.81128 7.24781 1.85835 7.19207 1.90838C7.08242 2.00901 6.96012 2.12624 6.83703 2.26362C6.70034 2.41033 6.57158 2.56424 6.45129 2.72467C6.38499 2.81323 6.32017 2.90288 6.25684 2.99358C6.19102 3.08944 6.12859 3.18757 6.06965 3.2878C6.03526 3.34511 6.00155 3.40282 5.96852 3.46092C5.95957 3.42674 5.95039 3.39264 5.94055 3.35878C5.91121 3.23092 5.87336 3.1053 5.84543 2.97881L5.79754 2.791C5.78363 2.72846 5.76742 2.66643 5.75262 2.60479C5.72055 2.48174 5.69485 2.35975 5.66371 2.24053C5.63512 2.1212 5.6077 2.00409 5.57891 1.89006L5.53906 1.72128C5.52543 1.66581 5.51043 1.61108 5.49863 1.55745C5.47348 1.4501 5.44656 1.3462 5.42227 1.24682C5.39863 1.14753 5.37402 1.05237 5.35078 0.962369C5.3302 0.87746 5.30848 0.79283 5.28563 0.708502L5.22727 0.492369C5.18902 0.36194 5.16172 0.24983 5.13918 0.176432C5.11692 0.102096 5.10301 0.0621349 5.10301 0.0621349C5.09305 0.0334449 5.07549 0.00799686 5.0522 -0.0114941C5.02891 -0.030985 5.00077 -0.0437875 4.97077 -0.0485354C4.94078 -0.0532834 4.91006 -0.0497987 4.88189 -0.0384532C4.85372 -0.0271077 4.82915 -0.00832703 4.81082 0.0158849C4.81082 0.0158849 4.78527 0.0496348 4.74117 0.113463C4.69778 0.178385 4.63434 0.268385 4.56414 0.397174C4.53012 0.46069 4.48875 0.532369 4.45039 0.610025C4.40896 0.693554 4.36895 0.777785 4.33039 0.862682C4.29004 0.953736 4.25059 1.05155 4.20945 1.15553C4.16899 1.25956 4.13203 1.36995 4.09258 1.486C4.05524 1.60213 4.02074 1.72413 3.98547 1.8512C3.95426 1.97846 3.92106 2.11085 3.89391 2.24799C3.88005 2.31754 3.8671 2.38726 3.85504 2.45713C3.84166 2.52867 3.83041 2.60059 3.82133 2.6728C3.81176 2.74573 3.80082 2.81971 3.79223 2.89448L3.77129 3.12186C3.75785 3.27487 3.75309 3.43198 3.74856 3.591C3.74707 3.67069 3.74801 3.75116 3.74953 3.83194C3.75039 3.89319 3.75176 3.95495 3.75461 4.01694C3.69817 4.0185 3.64207 4.01999 3.58656 4.02292C3.43977 4.02729 3.29641 4.04186 3.15762 4.05393C3.01871 4.06858 2.88418 4.08698 2.75469 4.10628C2.68992 4.11682 2.62637 4.12823 2.56418 4.13999C2.50195 4.15182 2.44121 4.16178 2.38168 4.17592C2.26266 4.20256 2.14938 4.2287 2.04219 4.25764C1.94082 4.28562 1.83993 4.31531 1.73957 4.34671C1.65158 4.37618 1.564 4.40685 1.47684 4.4387C1.39598 4.46944 1.3207 4.5012 1.25426 4.52803C1.18758 4.55639 1.12832 4.58288 1.07985 4.60713L0.954728 4.67143C0.886876 4.70784 0.850783 4.72897 0.850783 4.72897C0.824325 4.74446 0.802679 4.76697 0.788254 4.79402C0.773828 4.82107 0.767187 4.85159 0.76907 4.88219C0.770952 4.91279 0.781284 4.94227 0.798916 4.96735C0.816548 4.99242 0.84079 5.01212 0.868947 5.02424C0.868947 5.02424 0.907345 5.04081 0.979142 5.06866L1.11121 5.11717C1.16391 5.13401 1.22117 5.15713 1.285 5.18069L1.49469 5.25581C1.57665 5.28518 1.65889 5.31376 1.74141 5.34155C1.82891 5.37163 1.92141 5.40456 2.01817 5.43643C2.11492 5.4687 2.21598 5.5053 2.3207 5.53901L2.98641 5.76546L3.16246 5.82624C3.22247 5.84575 3.28211 5.86636 3.34137 5.88803C3.40125 5.90999 3.46199 5.9294 3.52289 5.95026C3.58336 5.97276 3.64426 5.99491 3.7057 6.01592L3.7925 6.0462C3.70551 6.07016 3.61907 6.09608 3.53324 6.12393C3.30512 6.19561 3.09164 6.28292 2.89399 6.36979L2.74945 6.43835C2.70223 6.46088 2.65574 6.48229 2.61129 6.50749C2.52195 6.55616 2.43602 6.6012 2.35574 6.64952C2.19363 6.74077 2.05195 6.83678 1.92949 6.92393C1.86844 6.96854 1.81149 7.0071 1.75996 7.04846L1.61805 7.16256L1.55867 7.21116L1.51137 7.25557L1.43688 7.32588C1.39652 7.36428 1.37543 7.38585 1.37543 7.38585C1.33928 7.42286 1.31423 7.46926 1.30311 7.51979C1.29199 7.57032 1.29526 7.62295 1.31253 7.67172C1.32981 7.72049 1.36041 7.76344 1.40085 7.7957C1.4413 7.82796 1.48998 7.84824 1.54137 7.85424L1.57297 7.85792L1.59621 7.86061C1.61149 7.86221 1.63449 7.86553 1.66363 7.86776C1.69297 7.87045 1.7291 7.87362 1.77098 7.87588L1.83856 7.87995C1.86168 7.88155 1.8852 7.88421 1.91043 7.88655C1.96086 7.89217 2.01496 7.89561 2.0732 7.90034C2.13293 7.90643 2.19738 7.90956 2.2652 7.91487L2.47891 7.93022C2.55317 7.93503 2.63031 7.94014 2.71039 7.94706C2.78992 7.95214 2.87211 7.95862 2.95625 7.96577L3.21344 7.98651C3.38828 8.0028 3.56844 8.01827 3.75117 8.03846C3.84266 8.04854 3.93445 8.05948 4.0266 8.06854L4.16512 8.08753C4.1882 8.09057 4.21125 8.09206 4.23434 8.09479L4.30356 8.10401C4.45875 8.12432 4.61309 8.14854 4.7661 8.17338C4.54367 8.30682 4.34371 8.45487 4.17106 8.61331C4.0786 8.69409 3.9959 8.78163 3.91754 8.86565C3.87828 8.90756 3.84199 8.95174 3.80676 8.99479C3.77195 9.03854 3.73649 9.07862 3.70555 9.12303C3.57856 9.29577 3.47656 9.46296 3.40043 9.62096C3.36156 9.69885 3.32844 9.77331 3.30184 9.84542C3.27438 9.91655 3.25168 9.98022 3.23203 10.0466C3.21219 10.1101 3.19641 10.1665 3.18516 10.216C3.17929 10.2549 3.17441 10.2941 3.17051 10.3333C3.16356 10.3978 3.16223 10.4342 3.16223 10.4342C3.16118 10.4666 3.16464 10.499 3.1725 10.5305C3.1835 10.5736 3.2029 10.6142 3.22958 10.6498C3.25626 10.6855 3.2897 10.7155 3.32799 10.7383C3.36629 10.761 3.40868 10.7759 3.45276 10.7823C3.49684 10.7886 3.54174 10.7862 3.58488 10.7752L3.58508 10.7752C3.58508 10.7752 3.62031 10.7662 3.68195 10.7458C3.71949 10.7337 3.75671 10.7206 3.7936 10.7067C3.83862 10.6962 3.8835 10.6851 3.92824 10.6734C3.97488 10.6623 4.03305 10.6472 4.09168 10.6307L4.18246 10.6054C4.21505 10.5974 4.24752 10.5889 4.27988 10.58C4.41094 10.544 4.5575 10.5086 4.70887 10.4703L4.94285 10.4147C5.0234 10.3977 5.10277 10.3771 5.18543 10.3607C5.34828 10.3236 5.51602 10.2915 5.68195 10.2612C5.84774 10.2287 6.01383 10.2072 6.17414 10.1844C6.33535 10.1618 6.49121 10.1492 6.64133 10.1398L6.6975 10.136C6.71629 10.1344 6.73492 10.1325 6.75305 10.1332C6.78957 10.1333 6.8261 10.1314 6.86274 10.1291C6.93391 10.1316 7.00676 10.1254 7.07602 10.1297C7.14735 10.1279 7.21512 10.1358 7.28578 10.1363L7.38942 10.1451C7.40668 10.1468 7.42453 10.1469 7.44211 10.1481L7.49367 10.1552C7.52785 10.1607 7.56399 10.1617 7.5991 10.1663C7.63388 10.1733 7.66891 10.179 7.7041 10.1835C7.7218 10.1862 7.74004 10.1878 7.75754 10.1913L7.81024 10.2026C7.84555 10.2099 7.88106 10.2173 7.91781 10.2229C7.98055 10.2399 8.04531 10.2548 8.10996 10.271C8.12453 10.283 8.1393 10.2945 8.15469 10.3049C8.24049 10.367 8.3282 10.4263 8.4177 10.4828C8.49983 10.5286 8.58332 10.5719 8.66805 10.6127L8.72617 10.6405C8.74528 10.6496 8.76543 10.6562 8.78442 10.6638C8.82254 10.6786 8.85973 10.6921 8.89543 10.7046C8.96035 10.7277 9.02603 10.7487 9.09235 10.7675C9.14675 10.7809 9.20157 10.7925 9.25672 10.8024C9.30438 10.8118 9.34582 10.8178 9.37934 10.8224C9.44617 10.8318 9.48305 10.8338 9.48305 10.8338C9.51416 10.8354 9.54533 10.8327 9.57571 10.8258C9.6413 10.8105 9.70059 10.7754 9.74543 10.7251C9.78508 10.696 9.81766 10.6583 9.84074 10.6149C9.86383 10.5714 9.87683 10.5234 9.87879 10.4742C9.87879 10.4742 9.88027 10.4373 9.87731 10.3699C9.8758 10.3285 9.87305 10.2871 9.86906 10.2459C9.8645 10.19 9.85815 10.1344 9.85004 10.0789C9.83765 10.0111 9.823 9.94374 9.80614 9.8769C9.79715 9.84018 9.78731 9.8019 9.77613 9.76253C9.77035 9.74292 9.76571 9.72217 9.75856 9.70233L9.73641 9.64182C9.7039 9.55359 9.66876 9.46635 9.63102 9.38022C9.58326 9.28575 9.53257 9.19279 9.47902 9.10147C9.46991 9.08512 9.46007 9.06918 9.44953 9.0537C9.43953 8.9878 9.43098 8.9219 9.41996 8.85784C9.41764 8.82141 9.41431 8.78506 9.40996 8.74881L9.40379 8.69526C9.40192 8.67749 9.40211 8.6592 9.4011 8.64131C9.40004 8.60585 9.3977 8.57044 9.39406 8.53514C9.39281 8.49975 9.39524 8.4637 9.39301 8.42913L9.39086 8.3771C9.39141 8.35948 9.39297 8.34171 9.39289 8.32432L9.39403 8.22034C9.40031 8.14995 9.39883 8.08171 9.4075 8.01089C9.40977 7.94151 9.42297 7.8696 9.42723 7.7985C9.43301 7.76225 9.43836 7.72608 9.4418 7.68971C9.44285 7.67163 9.44649 7.65327 9.44989 7.63471L9.45903 7.57917C9.4827 7.43065 9.51008 7.27667 9.54797 7.11838C9.58602 6.96096 9.62321 6.79768 9.67145 6.63577C9.71746 6.4735 9.76535 6.3096 9.81785 6.151C9.84203 6.0703 9.87012 5.99323 9.89473 5.91467L9.97242 5.68706C10.025 5.54003 10.0742 5.39753 10.1226 5.27053C10.1347 5.2387 10.1462 5.20717 10.1571 5.17596L10.191 5.08803C10.2114 5.03552 10.2307 4.98263 10.2491 4.9294C10.266 4.88264 10.2816 4.83897 10.295 4.79854C10.3154 4.75753 10.3316 4.72096 10.3446 4.69112C10.3708 4.63171 10.3831 4.59753 10.3831 4.59753L10.3838 4.59585C10.3945 4.56575 10.4008 4.53431 10.4026 4.50245C10.4053 4.45799 10.3992 4.41344 10.3846 4.37135C10.3701 4.32926 10.3473 4.29045 10.3178 4.25715C10.2882 4.22385 10.2523 4.1967 10.2123 4.17727C10.1722 4.15783 10.1287 4.14649 10.0842 4.14389Z" fill="#2BA52E"/>
<path d="M17.3093 18.1587L17.1511 18.3169C15.1191 20.3488 11.8247 20.3488 9.79274 18.3169L7.65399 16.1781C5.62203 14.1462 5.62203 10.8518 7.65399 8.8198L7.81219 8.6616C9.84414 6.62965 13.1386 6.62965 15.1705 8.6616L17.3093 10.8003C19.3412 12.8323 19.3412 16.1267 17.3093 18.1587Z" fill="#FFD469"/>
<path d="M8.61586 11.988H7.72606C7.68802 11.988 7.65153 11.9729 7.62463 11.946C7.59773 11.9191 7.58262 11.8826 7.58262 11.8446V10.9548C7.58262 10.936 7.58633 10.9173 7.59354 10.8999C7.60075 10.8825 7.61131 10.8667 7.62463 10.8534C7.63795 10.8401 7.65376 10.8295 7.67117 10.8223C7.68857 10.8151 7.70722 10.8114 7.72606 10.8114H8.61586C8.6347 10.8114 8.65335 10.8151 8.67075 10.8223C8.68816 10.8295 8.70397 10.8401 8.71729 10.8534C8.73061 10.8667 8.74117 10.8825 8.74838 10.8999C8.75559 10.9173 8.7593 10.936 8.7593 10.9548V11.8446C8.7593 11.8826 8.74419 11.9191 8.71729 11.946C8.69039 11.9729 8.6539 11.988 8.61586 11.988ZM10.7884 9.8155V8.9257C10.7884 8.88766 10.7733 8.85117 10.7464 8.82427C10.7195 8.79738 10.683 8.78226 10.645 8.78226H9.75516C9.71712 8.78226 9.68063 8.79738 9.65373 8.82427C9.62683 8.85117 9.61172 8.88766 9.61172 8.9257V9.8155C9.61172 9.85355 9.62683 9.89003 9.65373 9.91693C9.68063 9.94383 9.71712 9.95894 9.75516 9.95894H10.645C10.683 9.95894 10.7195 9.94383 10.7464 9.91693C10.7733 9.89003 10.7884 9.85355 10.7884 9.8155ZM10.0188 17.1623V16.2725C10.0188 16.2537 10.0151 16.235 10.0079 16.2176C10.0007 16.2002 9.99014 16.1844 9.97682 16.1711C9.9635 16.1578 9.94769 16.1472 9.93028 16.14C9.91288 16.1328 9.89423 16.1291 9.87539 16.1291H8.98559C8.96675 16.1291 8.9481 16.1328 8.9307 16.14C8.9133 16.1472 8.89748 16.1578 8.88416 16.1711C8.87084 16.1844 8.86028 16.2002 8.85307 16.2176C8.84586 16.235 8.84215 16.2537 8.84215 16.2725V17.1623C8.84215 17.2003 8.85726 17.2368 8.88416 17.2637C8.91106 17.2906 8.94755 17.3057 8.98559 17.3057H9.87539C9.91344 17.3057 9.94992 17.2906 9.97682 17.2637C10.0037 17.2368 10.0188 17.2003 10.0188 17.1623ZM12.0479 15.1332V14.2434C12.0479 14.2054 12.0328 14.1689 12.0059 14.142C11.979 14.1151 11.9425 14.1 11.9045 14.1H11.0147C10.9959 14.1 10.9772 14.1037 10.9598 14.1109C10.9424 14.1181 10.9266 14.1287 10.9133 14.142C10.8999 14.1553 10.8894 14.1711 10.8822 14.1885C10.875 14.2059 10.8713 14.2246 10.8713 14.2434V15.1332C10.8713 15.1521 10.875 15.1707 10.8822 15.1881C10.8894 15.2055 10.8999 15.2213 10.9133 15.2347C10.9266 15.248 10.9424 15.2585 10.9598 15.2658C10.9772 15.273 10.9959 15.2767 11.0147 15.2767H11.9045C11.9425 15.2767 11.979 15.2616 12.0059 15.2347C12.0328 15.2078 12.0479 15.1713 12.0479 15.1332ZM14.077 13.1041V12.2143C14.077 12.1955 14.0733 12.1768 14.0661 12.1594C14.0589 12.142 14.0483 12.1262 14.035 12.1129C14.0217 12.0996 14.0059 12.089 13.9885 12.0818C13.9711 12.0746 13.9524 12.0709 13.9336 12.0709H13.0438C13.025 12.0709 13.0063 12.0746 12.9889 12.0818C12.9715 12.089 12.9557 12.0996 12.9424 12.1129C12.929 12.1262 12.9185 12.142 12.9113 12.1594C12.9041 12.1768 12.9004 12.1955 12.9004 12.2143V13.1041C12.9004 13.1422 12.9155 13.1787 12.9424 13.2056C12.9693 13.2325 13.0058 13.2476 13.0438 13.2476H13.9336C13.9524 13.2476 13.9711 13.2439 13.9885 13.2367C14.0059 13.2294 14.0217 13.2189 14.035 13.2056C14.0483 13.1922 14.0589 13.1764 14.0661 13.159C14.0733 13.1416 14.077 13.123 14.077 13.1041ZM16.1061 11.075V10.1852C16.1061 10.1472 16.091 10.1107 16.0641 10.0838C16.0372 10.0569 16.0007 10.0418 15.9627 10.0418H15.0729C15.054 10.0418 15.0354 10.0455 15.018 10.0527C15.0006 10.0599 14.9847 10.0705 14.9714 10.0838C14.9581 10.0971 14.9475 10.1129 14.9403 10.1303C14.9331 10.1477 14.9294 10.1664 14.9294 10.1852V11.075C14.9294 11.0939 14.9331 11.1125 14.9403 11.1299C14.9475 11.1473 14.9581 11.1631 14.9714 11.1765C14.9847 11.1898 15.0006 11.2003 15.018 11.2076C15.0354 11.2148 15.054 11.2185 15.0729 11.2185H15.9627C15.9815 11.2185 16.0001 11.2148 16.0176 11.2076C16.035 11.2003 16.0508 11.1898 16.0641 11.1765C16.0774 11.1631 16.088 11.1473 16.0952 11.1299C16.1024 11.1125 16.1061 11.0939 16.1061 11.075ZM9.48055 14.595V13.7052C9.48055 13.6671 9.46544 13.6306 9.43854 13.6037C9.41164 13.5768 9.37515 13.5617 9.33711 13.5617H8.44731C8.40927 13.5617 8.37278 13.5768 8.34588 13.6037C8.31898 13.6306 8.30387 13.6671 8.30387 13.7052V14.595C8.30387 14.633 8.31898 14.6695 8.34588 14.6964C8.37278 14.7233 8.40927 14.7384 8.44731 14.7384H9.33711C9.37515 14.7384 9.41164 14.7233 9.43854 14.6964C9.46544 14.6695 9.48055 14.633 9.48055 14.595ZM11.5097 12.5659V11.6761C11.5097 11.638 11.4945 11.6015 11.4676 11.5746C11.4407 11.5477 11.4043 11.5326 11.3662 11.5326H10.4764C10.4384 11.5326 10.4019 11.5477 10.375 11.5746C10.3481 11.6015 10.333 11.638 10.333 11.6761V12.5659C10.333 12.6039 10.3481 12.6404 10.375 12.6673C10.4019 12.6942 10.4384 12.7093 10.4764 12.7093H11.3662C11.4043 12.7093 11.4407 12.6942 11.4676 12.6673C11.4945 12.6404 11.5097 12.6039 11.5097 12.5659ZM13.5388 10.5368V9.64695C13.5388 9.62811 13.535 9.60946 13.5278 9.59206C13.5206 9.57466 13.5101 9.55884 13.4967 9.54553C13.4834 9.53221 13.4676 9.52164 13.4502 9.51443C13.4328 9.50722 13.4142 9.50351 13.3953 9.50351H12.5055C12.4675 9.50351 12.431 9.51863 12.4041 9.54553C12.3772 9.57242 12.3621 9.60891 12.3621 9.64695V10.5368C12.3621 10.5748 12.3772 10.6113 12.4041 10.6382C12.431 10.6651 12.4675 10.6802 12.5055 10.6802H13.3953C13.4142 10.6802 13.4328 10.6765 13.4502 10.6693C13.4676 10.6621 13.4834 10.6515 13.4967 10.6382C13.5101 10.6249 13.5206 10.609 13.5278 10.5916C13.535 10.5742 13.5388 10.5556 13.5388 10.5368ZM15.3365 18.4218V17.532C15.3365 17.494 15.3214 17.4575 15.2945 17.4306C15.2676 17.4037 15.2311 17.3886 15.1931 17.3886H14.3033C14.2652 17.3886 14.2288 17.4037 14.2019 17.4306C14.175 17.4575 14.1598 17.494 14.1598 17.532V18.4218C14.1598 18.4599 14.175 18.4964 14.2019 18.5233C14.2288 18.5502 14.2652 18.5653 14.3033 18.5653H15.1931C15.2311 18.5653 15.2676 18.5502 15.2945 18.5233C15.3214 18.4964 15.3365 18.4599 15.3365 18.4218ZM17.3656 16.3927V15.5029C17.3656 15.4841 17.3619 15.4654 17.3547 15.448C17.3475 15.4306 17.3369 15.4148 17.3236 15.4015C17.3103 15.3882 17.2945 15.3776 17.2771 15.3704C17.2597 15.3632 17.241 15.3595 17.2222 15.3595H16.3324C16.3136 15.3595 16.2949 15.3632 16.2775 15.3704C16.2601 15.3776 16.2443 15.3882 16.231 15.4015C16.2176 15.4148 16.2071 15.4306 16.1999 15.448C16.1927 15.4654 16.189 15.4841 16.189 15.5029V16.3927C16.189 16.4116 16.1927 16.4302 16.1999 16.4476C16.2071 16.465 16.2176 16.4808 16.231 16.4942C16.2443 16.5075 16.2601 16.518 16.2775 16.5252C16.2949 16.5325 16.3136 16.5362 16.3324 16.5362H17.2222C17.241 16.5362 17.2597 16.5325 17.2771 16.5252C17.2945 16.518 17.3103 16.5075 17.3236 16.4942C17.3369 16.4808 17.3475 16.465 17.3547 16.4476C17.3619 16.4302 17.3656 16.4116 17.3656 16.3927ZM12.7692 17.8835V16.9937C12.7692 16.9557 12.7541 16.9192 12.7272 16.8923C12.7003 16.8654 12.6638 16.8503 12.6257 16.8503H11.7359C11.6979 16.8503 11.6614 16.8654 11.6345 16.8923C11.6076 16.9192 11.5925 16.9557 11.5925 16.9937V17.8835C11.5925 17.9216 11.6076 17.9581 11.6345 17.985C11.6614 18.0119 11.6979 18.027 11.7359 18.027H12.6257C12.6638 18.027 12.7003 18.0119 12.7272 17.985C12.7541 17.9581 12.7692 17.9216 12.7692 17.8835ZM14.7982 15.8544V14.9646C14.7982 14.9458 14.7945 14.9272 14.7873 14.9098C14.7801 14.8924 14.7696 14.8765 14.7562 14.8632C14.7429 14.8499 14.7271 14.8393 14.7097 14.8321C14.6923 14.8249 14.6736 14.8212 14.6548 14.8212H13.765C13.7462 14.8212 13.7275 14.8249 13.7101 14.8321C13.6927 14.8393 13.6769 14.8499 13.6636 14.8632C13.6503 14.8765 13.6397 14.8924 13.6325 14.9098C13.6253 14.9272 13.6216 14.9458 13.6216 14.9646V15.8544C13.6216 15.8733 13.6253 15.8919 13.6325 15.9093C13.6397 15.9267 13.6503 15.9426 13.6636 15.9559C13.6769 15.9692 13.6927 15.9798 13.7101 15.987C13.7275 15.9942 13.7462 15.9979 13.765 15.9979H14.6548C14.6929 15.9979 14.7293 15.9828 14.7562 15.9559C14.7831 15.929 14.7982 15.8925 14.7982 15.8544ZM16.8273 13.8253V12.9355C16.8273 12.8975 16.8122 12.861 16.7853 12.8341C16.7584 12.8072 16.722 12.7921 16.6839 12.7921H15.7941C15.7561 12.7921 15.7196 12.8072 15.6927 12.8341C15.6658 12.861 15.6507 12.8975 15.6507 12.9355V13.8253C15.6507 13.8442 15.6544 13.8628 15.6616 13.8802C15.6688 13.8976 15.6794 13.9135 15.6927 13.9268C15.706 13.9401 15.7218 13.9507 15.7392 13.9579C15.7566 13.9651 15.7753 13.9688 15.7941 13.9688H16.6839C16.7027 13.9688 16.7214 13.9651 16.7388 13.9579C16.7562 13.9507 16.772 13.9401 16.7853 13.9268C16.7987 13.9135 16.8092 13.8976 16.8164 13.8802C16.8236 13.8628 16.8273 13.8442 16.8273 13.8253ZM17.6798 11.2123V11.7962C17.6798 11.8151 17.6835 11.8337 17.6907 11.8511C17.6979 11.8685 17.7085 11.8844 17.7218 11.8977C17.7351 11.911 17.7509 11.9216 17.7683 11.9288C17.7857 11.936 17.8044 11.9397 17.8232 11.9397H18.1726C18.0292 11.6837 17.8643 11.4404 17.6798 11.2123ZM18.2181 13.4738V14.3636C18.2181 14.3825 18.2218 14.4011 18.229 14.4185C18.2362 14.4359 18.2467 14.4517 18.2601 14.4651C18.2734 14.4784 18.2892 14.4889 18.3066 14.4961C18.324 14.5034 18.3427 14.5071 18.3615 14.5071H18.8329C18.835 14.1113 18.7921 13.7165 18.7051 13.3304H18.3615C18.3234 13.3304 18.287 13.3455 18.2601 13.3724C18.2332 13.3993 18.2181 13.4358 18.2181 13.4738ZM13.164 19.4177H12.2742C12.2361 19.4177 12.1997 19.4328 12.1728 19.4597C12.1459 19.4866 12.1307 19.5231 12.1307 19.5611V19.6658C12.5151 19.7678 12.9099 19.8256 13.3074 19.838V19.5611C13.3074 19.5423 13.3037 19.5236 13.2965 19.5062C13.2893 19.4888 13.2787 19.473 13.2654 19.4597C13.2521 19.4464 13.2363 19.4358 13.2189 19.4286C13.2015 19.4214 13.1828 19.4177 13.164 19.4177ZM14.5346 8.65109H15.1597C14.9242 8.41677 14.6668 8.20543 14.3912 8.01996V8.50765C14.3912 8.52649 14.3949 8.54514 14.4021 8.56255C14.4093 8.57995 14.4199 8.59576 14.4332 8.60908C14.4465 8.6224 14.4623 8.63296 14.4797 8.64017C14.4971 8.64738 14.5158 8.65109 14.5346 8.65109ZM11.6408 7.14008V7.78644C11.6408 7.82448 11.6559 7.86097 11.6828 7.88787C11.7097 7.91477 11.7462 7.92988 11.7843 7.92988H12.6741C12.7121 7.92988 12.7486 7.91477 12.7755 7.88787C12.8024 7.86097 12.8175 7.82448 12.8175 7.78644V7.30902C12.433 7.20809 12.0382 7.1514 11.6408 7.14008ZM6.5868 12.8405H6.14149C6.16754 13.2396 6.23942 13.6344 6.35571 14.0171H6.5868C6.62484 14.0171 6.66133 14.002 6.68823 13.9751C6.71512 13.9482 6.73024 13.9117 6.73024 13.8737V12.9839C6.73024 12.9459 6.71512 12.9094 6.68823 12.8825C6.66133 12.8556 6.62484 12.8405 6.5868 12.8405Z" fill="#FFC136"/>
</g>
<defs>
<clipPath id="clip0">
<rect width="20" height="20" fill="white"/>
</clipPath>
</defs>
</svg>
