<svg width="18" height="18" viewBox="0 0 18 18" fill="none" xmlns="http://www.w3.org/2000/svg">
<path d="M9 0.25C4.16797 0.25 0.25 4.16797 0.25 9C0.25 13.832 4.16797 17.75 9 17.75C13.832 17.75 17.75 13.832 17.75 9C17.75 4.16797 13.832 0.25 9 0.25ZM9 16.2656C4.98828 16.2656 1.73438 13.0117 1.73438 9C1.73438 4.98828 4.98828 1.73438 9 1.73438C13.0117 1.73438 16.2656 4.98828 16.2656 9C16.2656 13.0117 13.0117 16.2656 9 16.2656Z" fill="white"/>
<path d="M11.1797 5.18555C10.5938 4.67188 9.82031 4.39062 9 4.39062C8.17969 4.39062 7.40625 4.67383 6.82031 5.18555C6.21094 5.71875 5.875 6.43555 5.875 7.20312V7.35156C5.875 7.4375 5.94531 7.50781 6.03125 7.50781H6.96875C7.05469 7.50781 7.125 7.4375 7.125 7.35156V7.20312C7.125 6.3418 7.9668 5.64062 9 5.64062C10.0332 5.64062 10.875 6.3418 10.875 7.20312C10.875 7.81055 10.4453 8.36719 9.7793 8.62305C9.36523 8.78125 9.01367 9.05859 8.76172 9.42188C8.50586 9.79297 8.37305 10.2383 8.37305 10.6895V11.1094C8.37305 11.1953 8.44336 11.2656 8.5293 11.2656H9.4668C9.55273 11.2656 9.62305 11.1953 9.62305 11.1094V10.666C9.62406 10.4764 9.68218 10.2915 9.78983 10.1354C9.89749 9.97934 10.0497 9.85932 10.2266 9.79102C11.3789 9.34766 12.123 8.33203 12.123 7.20312C12.125 6.43555 11.7891 5.71875 11.1797 5.18555ZM8.21875 13.2969C8.21875 13.5041 8.30106 13.7028 8.44757 13.8493C8.59409 13.9958 8.7928 14.0781 9 14.0781C9.2072 14.0781 9.40591 13.9958 9.55243 13.8493C9.69894 13.7028 9.78125 13.5041 9.78125 13.2969C9.78125 13.0897 9.69894 12.891 9.55243 12.7444C9.40591 12.5979 9.2072 12.5156 9 12.5156C8.7928 12.5156 8.59409 12.5979 8.44757 12.7444C8.30106 12.891 8.21875 13.0897 8.21875 13.2969Z" fill="white"/>
</svg>
