<svg width="25" height="25" viewBox="0 0 25 25" fill="none" xmlns="http://www.w3.org/2000/svg">
<path d="M22.3688 11.8408H25.0004C25.0004 5.09079 19.9043 0 13.1451 0V2.63158C18.4899 2.63158 22.3688 6.50395 22.3688 11.8408Z" fill="#226ED8"/>
<path d="M13.1583 7.89488C15.9254 7.89488 17.1056 9.07514 17.1056 11.8422H19.7372C19.7372 7.59882 17.4017 5.2633 13.1583 5.2633V7.89488ZM17.6609 15.0567C17.4081 14.8269 17.0758 14.7044 16.7343 14.7149C16.3928 14.7255 16.0688 14.8683 15.8306 15.1133L12.682 18.3515C11.9241 18.2067 10.4004 17.7317 8.83195 16.1672C7.26353 14.5975 6.78853 13.0699 6.64774 12.3172L9.88327 9.16724C10.1285 8.92926 10.2716 8.60517 10.2822 8.26357C10.2927 7.92197 10.17 7.58967 9.93985 7.33698L5.078 1.99093C4.8478 1.73745 4.52785 1.5837 4.1861 1.56232C3.84435 1.54095 3.50774 1.65364 3.24774 1.87645L0.392477 4.32514C0.164991 4.55345 0.0292125 4.85731 0.0108973 5.17909C-0.00883953 5.50803 -0.385155 13.3001 5.65695 19.3449C10.928 24.6146 17.5306 25.0001 19.3491 25.0001C19.6149 25.0001 19.778 24.9922 19.8214 24.9896C20.1432 24.9716 20.4469 24.8352 20.6741 24.6067L23.1214 21.7501C23.3444 21.4903 23.4573 21.1538 23.4362 20.8121C23.4151 20.4703 23.2616 20.1503 23.0083 19.9199L17.6609 15.0567Z" fill="#226ED8"/>
</svg>
